<mxfile host="app.diagrams.net" agent="Mozilla/5.0 (Windows NT 10.0; Win64; x64) AppleWebKit/537.36 (KHTML, like Gecko) Chrome/129.0.0.0 Safari/537.36" version="24.7.17">
  <diagram name="Page-1" id="j8keMvtEACl50jHCZvkG">
    <mxGraphModel grid="1" page="1" gridSize="10" guides="1" tooltips="1" connect="1" arrows="1" fold="1" pageScale="1" pageWidth="850" pageHeight="1100" math="0" shadow="0">
      <root>
        <mxCell id="0" />
        <mxCell id="1" parent="0" />
        <mxCell id="9yPK3zDzk3KNYmgOrZTR-1" value="&lt;p style=&quot;mso-pagination:none;text-autospace:none;mso-padding-alt:0pt 0pt 0pt 0pt;&quot; class=&quot;0&quot;&gt;&lt;span style=&quot;mso-fareast-font-family:HY중고딕;font-family:HY중고딕;mso-ascii-font-family:HY중고딕;mso-font-width:100%;letter-spacing:0pt;mso-text-raise:0pt;font-weight:bold;color:#1d1e42;&quot; lang=&quot;EN-US&quot;&gt;Raspberry Pi 3&lt;/span&gt;&lt;/p&gt;&lt;div data-jsonlen=&quot;6238&quot; data-hjsonver=&quot;1.0&quot; class=&quot;hwp_editor_board_content&quot; id=&quot;hwpEditorBoardContent&quot;&gt;&lt;/div&gt;" style="rounded=0;whiteSpace=wrap;html=1;fillColor=#99FF99;" vertex="1" parent="1">
          <mxGeometry x="320" y="420" width="120" height="60" as="geometry" />
        </mxCell>
        <mxCell id="9yPK3zDzk3KNYmgOrZTR-2" value="&lt;p class=&quot;0&quot;&gt;&lt;span style=&quot;mso-fareast-font-family:HY중고딕;font-family:HY중고딕;mso-ascii-font-family:HY중고딕;mso-font-width:100%;letter-spacing:0pt;mso-text-raise:0pt;font-weight:bold;font-size:9.0pt;color:#1d1e42;&quot; lang=&quot;EN-US&quot;&gt;Passive Infrated Sensor&lt;/span&gt;&lt;/p&gt;&lt;div data-jsonlen=&quot;6246&quot; data-hjsonver=&quot;1.0&quot; class=&quot;hwp_editor_board_content&quot; id=&quot;hwpEditorBoardContent&quot;&gt;&lt;/div&gt;" style="rounded=0;whiteSpace=wrap;html=1;fillColor=#FFCCCC;" vertex="1" parent="1">
          <mxGeometry x="110" y="330" width="120" height="60" as="geometry" />
        </mxCell>
        <mxCell id="9yPK3zDzk3KNYmgOrZTR-3" value="&lt;p class=&quot;0&quot;&gt;&lt;span style=&quot;mso-fareast-font-family:HY중고딕;font-family:HY중고딕;mso-ascii-font-family:HY중고딕;mso-font-width:100%;letter-spacing:0pt;mso-text-raise:0pt;font-weight:bold;color:#1d1e42;&quot; lang=&quot;EN-US&quot;&gt;Door Sensor&lt;/span&gt;&lt;/p&gt;&lt;div data-jsonlen=&quot;6235&quot; data-hjsonver=&quot;1.0&quot; class=&quot;hwp_editor_board_content&quot; id=&quot;hwpEditorBoardContent&quot;&gt;&lt;/div&gt;" style="rounded=0;whiteSpace=wrap;html=1;fillColor=#FFCCCC;" vertex="1" parent="1">
          <mxGeometry x="110" y="420" width="120" height="60" as="geometry" />
        </mxCell>
        <mxCell id="9yPK3zDzk3KNYmgOrZTR-4" value="&lt;p class=&quot;0&quot;&gt;&lt;/p&gt;&lt;div data-jsonlen=&quot;6236&quot; data-hjsonver=&quot;1.0&quot; class=&quot;hwp_editor_board_content&quot; id=&quot;hwpEditorBoardContent&quot;&gt;&lt;/div&gt;&lt;p&gt;&lt;/p&gt;&lt;p style=&quot;mso-pagination:none;text-autospace:none;mso-padding-alt:0pt 0pt 0pt 0pt;&quot; class=&quot;0&quot;&gt;&lt;span style=&quot;mso-fareast-font-family:HY중고딕;font-family:HY중고딕;mso-ascii-font-family:HY중고딕;mso-font-width:100%;letter-spacing:0pt;mso-text-raise:0pt;font-weight:bold;color:#1d1e42;&quot; lang=&quot;EN-US&quot;&gt;Flame Sensor&lt;/span&gt;&lt;/p&gt;&lt;div data-jsonlen=&quot;6235&quot; data-hjsonver=&quot;1.0&quot; class=&quot;hwp_editor_board_content&quot; id=&quot;hwpEditorBoardContent&quot;&gt;&lt;/div&gt;" style="rounded=0;whiteSpace=wrap;html=1;fillColor=#FFCCCC;" vertex="1" parent="1">
          <mxGeometry x="110" y="510" width="120" height="60" as="geometry" />
        </mxCell>
        <mxCell id="9yPK3zDzk3KNYmgOrZTR-8" value="&lt;p class=&quot;0&quot;&gt;&lt;span style=&quot;mso-fareast-font-family:HY중고딕;font-family:HY중고딕;mso-ascii-font-family:HY중고딕;mso-font-width:100%;letter-spacing:0pt;mso-text-raise:0pt;font-weight:bold;color:#1d1e42;&quot; lang=&quot;EN-US&quot;&gt;&lt;br&gt;&lt;/span&gt;&lt;/p&gt;&lt;p class=&quot;0&quot;&gt;&lt;span style=&quot;mso-fareast-font-family:HY중고딕;font-family:HY중고딕;mso-ascii-font-family:HY중고딕;mso-font-width:100%;letter-spacing:0pt;mso-text-raise:0pt;font-weight:bold;color:#1d1e42;&quot; lang=&quot;EN-US&quot;&gt;Raspbian OS&lt;/span&gt;&lt;/p&gt;&lt;div data-jsonlen=&quot;6235&quot; data-hjsonver=&quot;1.0&quot; class=&quot;hwp_editor_board_content&quot; id=&quot;hwpEditorBoardContent&quot;&gt;&lt;/div&gt;" style="rounded=0;whiteSpace=wrap;html=1;fillColor=#99FF99;" vertex="1" parent="1">
          <mxGeometry x="330" y="370" width="100" height="50" as="geometry" />
        </mxCell>
        <mxCell id="9yPK3zDzk3KNYmgOrZTR-9" value="&lt;p class=&quot;0&quot;&gt;&lt;span style=&quot;mso-fareast-font-family:HY중고딕;font-family:HY중고딕;mso-ascii-font-family:HY중고딕;mso-font-width:100%;letter-spacing:0pt;mso-text-raise:0pt;font-weight:bold;color:#1d1e42;&quot; lang=&quot;EN-US&quot;&gt;GCC&lt;/span&gt;&lt;/p&gt;&lt;div data-jsonlen=&quot;6227&quot; data-hjsonver=&quot;1.0&quot; class=&quot;hwp_editor_board_content&quot; id=&quot;hwpEditorBoardContent&quot;&gt;&lt;/div&gt;" style="rounded=0;whiteSpace=wrap;html=1;fillColor=#99FF99;" vertex="1" parent="1">
          <mxGeometry x="350" y="370" width="60" height="30" as="geometry" />
        </mxCell>
        <mxCell id="9yPK3zDzk3KNYmgOrZTR-10" value="&lt;p class=&quot;0&quot;&gt;&lt;span style=&quot;mso-fareast-font-family:HY중고딕;font-family:HY중고딕;mso-ascii-font-family:HY중고딕;mso-font-width:100%;letter-spacing:0pt;mso-text-raise:0pt;font-weight:bold;color:#1d1e42;&quot; lang=&quot;EN-US&quot;&gt;Apache HTTP Server&lt;/span&gt;&lt;/p&gt;&lt;div data-jsonlen=&quot;6242&quot; data-hjsonver=&quot;1.0&quot; class=&quot;hwp_editor_board_content&quot; id=&quot;hwpEditorBoardContent&quot;&gt;&lt;/div&gt;" style="rounded=0;whiteSpace=wrap;html=1;fillColor=#99CCFF;" vertex="1" parent="1">
          <mxGeometry x="520" y="260" width="120" height="60" as="geometry" />
        </mxCell>
        <mxCell id="9yPK3zDzk3KNYmgOrZTR-11" value="&lt;p class=&quot;0&quot;&gt;&lt;span style=&quot;mso-fareast-font-family:HY중고딕;font-family:HY중고딕;mso-ascii-font-family:HY중고딕;mso-font-width:100%;letter-spacing:0pt;mso-text-raise:0pt;font-weight:bold;color:#1d1e42;&quot; lang=&quot;EN-US&quot;&gt;Telegram API&lt;/span&gt;&lt;/p&gt;&lt;div data-jsonlen=&quot;6236&quot; data-hjsonver=&quot;1.0&quot; class=&quot;hwp_editor_board_content&quot; id=&quot;hwpEditorBoardContent&quot;&gt;&lt;/div&gt;" style="rounded=0;whiteSpace=wrap;html=1;fillColor=#99CCFF;" vertex="1" parent="1">
          <mxGeometry x="520" y="460" width="120" height="60" as="geometry" />
        </mxCell>
        <mxCell id="p5QagOoD6eB5IsxL-gXf-21" style="edgeStyle=orthogonalEdgeStyle;rounded=0;orthogonalLoop=1;jettySize=auto;html=1;exitX=0.5;exitY=0;exitDx=0;exitDy=0;entryX=0.5;entryY=1;entryDx=0;entryDy=0;" edge="1" parent="1" source="9yPK3zDzk3KNYmgOrZTR-12" target="9yPK3zDzk3KNYmgOrZTR-10">
          <mxGeometry relative="1" as="geometry" />
        </mxCell>
        <mxCell id="9yPK3zDzk3KNYmgOrZTR-12" value="&lt;p class=&quot;0&quot;&gt;&lt;/p&gt;&lt;div data-jsonlen=&quot;6236&quot; data-hjsonver=&quot;1.0&quot; class=&quot;hwp_editor_board_content&quot; id=&quot;hwpEditorBoardContent&quot;&gt;&lt;/div&gt;&lt;p&gt;&lt;/p&gt;&lt;p style=&quot;mso-pagination:none;text-autospace:none;mso-padding-alt:0pt 0pt 0pt 0pt;&quot; class=&quot;0&quot;&gt;&lt;/p&gt;&lt;div data-jsonlen=&quot;6229&quot; data-hjsonver=&quot;1.0&quot; class=&quot;hwp_editor_board_content&quot; id=&quot;hwpEditorBoardContent&quot;&gt;&lt;/div&gt;&lt;p&gt;&lt;/p&gt;&lt;p style=&quot;mso-pagination:none;text-autospace:none;mso-padding-alt:0pt 0pt 0pt 0pt;&quot; class=&quot;0&quot;&gt;&lt;span style=&quot;mso-fareast-font-family:HY중고딕;font-family:HY중고딕;mso-ascii-font-family:HY중고딕;mso-font-width:100%;letter-spacing:0pt;mso-text-raise:0pt;font-weight:bold;color:#1d1e42;&quot; lang=&quot;EN-US&quot;&gt;MySQL DBMS&lt;/span&gt;&lt;/p&gt;&lt;div data-jsonlen=&quot;6242&quot; data-hjsonver=&quot;1.0&quot; class=&quot;hwp_editor_board_content&quot; id=&quot;hwpEditorBoardContent&quot;&gt;&lt;/div&gt;" style="rounded=0;whiteSpace=wrap;html=1;fillColor=#99CCFF;" vertex="1" parent="1">
          <mxGeometry x="520" y="360" width="120" height="60" as="geometry" />
        </mxCell>
        <mxCell id="9yPK3zDzk3KNYmgOrZTR-14" value="" style="endArrow=classic;startArrow=classic;html=1;rounded=0;exitX=0;exitY=0.5;exitDx=0;exitDy=0;entryX=1;entryY=0;entryDx=0;entryDy=0;" edge="1" parent="1" target="9yPK3zDzk3KNYmgOrZTR-8" source="9yPK3zDzk3KNYmgOrZTR-10">
          <mxGeometry width="50" height="50" relative="1" as="geometry">
            <mxPoint x="531" y="290" as="sourcePoint" />
            <mxPoint x="430" y="420" as="targetPoint" />
          </mxGeometry>
        </mxCell>
        <mxCell id="p5QagOoD6eB5IsxL-gXf-13" value="" style="endArrow=classic;html=1;rounded=0;exitX=1;exitY=0.5;exitDx=0;exitDy=0;entryX=0;entryY=0;entryDx=0;entryDy=0;" edge="1" parent="1" source="9yPK3zDzk3KNYmgOrZTR-2" target="9yPK3zDzk3KNYmgOrZTR-1">
          <mxGeometry width="50" height="50" relative="1" as="geometry">
            <mxPoint x="270" y="420" as="sourcePoint" />
            <mxPoint x="320" y="370" as="targetPoint" />
          </mxGeometry>
        </mxCell>
        <mxCell id="p5QagOoD6eB5IsxL-gXf-14" value="" style="endArrow=classic;html=1;rounded=0;exitX=1;exitY=0.5;exitDx=0;exitDy=0;entryX=0;entryY=0.5;entryDx=0;entryDy=0;" edge="1" parent="1" target="9yPK3zDzk3KNYmgOrZTR-1">
          <mxGeometry width="50" height="50" relative="1" as="geometry">
            <mxPoint x="230" y="450" as="sourcePoint" />
            <mxPoint x="320" y="510" as="targetPoint" />
          </mxGeometry>
        </mxCell>
        <mxCell id="p5QagOoD6eB5IsxL-gXf-15" value="" style="endArrow=classic;html=1;rounded=0;exitX=1;exitY=0.5;exitDx=0;exitDy=0;entryX=0;entryY=1;entryDx=0;entryDy=0;" edge="1" parent="1" target="9yPK3zDzk3KNYmgOrZTR-1">
          <mxGeometry width="50" height="50" relative="1" as="geometry">
            <mxPoint x="230" y="510" as="sourcePoint" />
            <mxPoint x="320" y="570" as="targetPoint" />
          </mxGeometry>
        </mxCell>
        <mxCell id="p5QagOoD6eB5IsxL-gXf-17" value="" style="endArrow=classic;html=1;rounded=0;exitX=1;exitY=0.5;exitDx=0;exitDy=0;entryX=0;entryY=0.5;entryDx=0;entryDy=0;" edge="1" parent="1">
          <mxGeometry width="50" height="50" relative="1" as="geometry">
            <mxPoint x="430" y="394.5" as="sourcePoint" />
            <mxPoint x="520" y="394.5" as="targetPoint" />
          </mxGeometry>
        </mxCell>
        <mxCell id="p5QagOoD6eB5IsxL-gXf-19" value="" style="endArrow=classic;html=1;rounded=0;exitX=1;exitY=0.5;exitDx=0;exitDy=0;entryX=0;entryY=0.5;entryDx=0;entryDy=0;" edge="1" parent="1" target="9yPK3zDzk3KNYmgOrZTR-11">
          <mxGeometry width="50" height="50" relative="1" as="geometry">
            <mxPoint x="430" y="404.5" as="sourcePoint" />
            <mxPoint x="520" y="404.5" as="targetPoint" />
          </mxGeometry>
        </mxCell>
      </root>
    </mxGraphModel>
  </diagram>
</mxfile>
